<svg width="500" height="500" viewBox="0 0 500 500" fill="none" xmlns="http://www.w3.org/2000/svg">
<path d="M239.79 124.994C202.261 128.606 196.328 118.281 168.394 120.682C128.174 124.124 99.3597 149.057 74.9375 170.157C59.6098 183.404 38.1291 201.983 22.1611 234.469C16.0981 246.815 -2.29113 285.615 5.15259 336.72C13.3067 392.898 47.2737 426.935 57.3787 436.77C87.2737 465.895 119.17 476.24 143.072 484.044C181.851 496.65 213.497 497.051 240.38 497.241C269.395 497.401 300.41 497.581 338.779 484.594C366.347 475.286 392.035 461.138 414.637 442.813C442.992 419.692 458.539 396.16 462.461 390.047C474.31 371.76 483.217 351.726 488.854 330.677C492.696 315.67 498.279 292.878 493.797 263.644C490.278 240.666 481.431 218.83 467.964 199.882C447.894 171.948 424.092 160.452 381.651 139.962C343.842 121.693 323.622 111.948 295.348 113.569C272.536 114.839 269.865 122.063 239.79 124.994Z" fill="#EA504F" stroke="#E52126" stroke-miterlimit="10"/>
<line x1="130.393" y1="156.582" x2="145.401" y2="182.575" stroke="black" stroke-width="10"/>
<line y1="-5" x2="30.015" y2="-5" transform="matrix(0.500001 0.866025 -0.866026 0.499999 300.15 440.222)" stroke="black" stroke-width="10"/>
<line x1="60.529" y1="213.781" x2="86.5228" y2="228.788" stroke="black" stroke-width="10"/>
<line y1="-5" x2="30.015" y2="-5" transform="matrix(0.866026 0.499999 -0.500001 0.866025 390.195 396.2)" stroke="black" stroke-width="10"/>
<line x1="136.74" y1="458.713" x2="151.748" y2="432.72" stroke="black" stroke-width="10"/>
<line x1="3" y1="305" x2="85" y2="305" stroke="black" stroke-width="10"/>
<line x1="410" y1="305" x2="494" y2="305" stroke="black" stroke-width="10"/>
<line y1="-5" x2="30.015" y2="-5" transform="matrix(0.866026 -0.499999 0.500001 0.866025 411.206 226.115)" stroke="black" stroke-width="10"/>
<line y1="-5" x2="30.015" y2="-5" transform="matrix(0.866025 -0.500001 0.499999 0.866026 60.03 403.204)" stroke="black" stroke-width="10"/>
<line y1="-5" x2="30.015" y2="-5" transform="matrix(0.499999 -0.866026 0.866025 0.500001 330.165 172.069)" stroke="black" stroke-width="10"/>
<ellipse cx="247.624" cy="301.153" rx="162.581" ry="125.063" fill="#F0A1A0"/>
<path d="M410.205 301.153C410.205 377.191 330.165 413.209 298.149 418.211L220.11 308.156V177.091C328.164 165.085 410.205 232.082 410.205 301.153Z" fill="#F8C9C9"/>
<path d="M303.108 305.099H247.21V297.306L276.741 264.493C281.116 259.532 284.124 255.509 285.765 252.423C287.444 249.298 288.284 246.075 288.284 242.755C288.284 238.302 286.936 234.649 284.241 231.798C281.546 228.946 277.952 227.52 273.46 227.52C268.069 227.52 263.87 229.063 260.862 232.149C257.893 235.196 256.409 239.454 256.409 244.923H245.569C245.569 237.071 248.089 230.724 253.128 225.88C258.206 221.036 264.983 218.614 273.46 218.614C281.39 218.614 287.659 220.704 292.268 224.884C296.878 229.024 299.183 234.552 299.183 241.466C299.183 249.864 293.831 259.864 283.128 271.466L260.276 296.251H303.108V305.099ZM319.573 262.325L323.909 219.786H367.62V229.806H333.108L330.53 253.067C334.71 250.606 339.456 249.376 344.768 249.376C352.542 249.376 358.714 251.954 363.284 257.11C367.854 262.227 370.14 269.161 370.14 277.911C370.14 286.7 367.757 293.634 362.991 298.712C358.265 303.751 351.643 306.27 343.128 306.27C335.589 306.27 329.436 304.181 324.671 300.001C319.905 295.821 317.19 290.04 316.526 282.657H326.78C327.444 287.54 329.183 291.231 331.995 293.731C334.808 296.192 338.518 297.423 343.128 297.423C348.167 297.423 352.112 295.704 354.964 292.267C357.854 288.829 359.3 284.083 359.3 278.028C359.3 272.325 357.737 267.755 354.612 264.317C351.526 260.841 347.405 259.102 342.249 259.102C337.522 259.102 333.811 260.138 331.116 262.208L328.245 264.552L319.573 262.325Z" fill="black"/>
<circle cx="220.61" cy="305.657" r="20.5103" fill="black"/>
<line x1="224" y1="426" x2="224" y2="497" stroke="black" stroke-width="10"/>
<line x1="224.11" y1="147.07" x2="224.11" y2="177.085" stroke="black" stroke-width="10"/>
<path d="M240.96 109.627L219.52 61.8029L200.83 3.53377L185.433 12.8784L156.298 11.7779L188.184 52.4582L217.869 113.489L198.629 111.288L153.547 117.291L119.47 131.068L78.2391 161.303L135.408 142.073L182.681 139.322L193.687 143.174L198.089 151.418L183.782 209.107L207.974 171.178L225.563 151.388L232.156 149.187L240.96 151.388L275.038 182.723L304.152 221.223L292.606 183.844L280.54 154.709L273.937 140.412L275.588 130.517L286.033 125.575L320.16 123.924L383.922 135.47L332.616 113.459L301.461 106.855L280.03 104.664L240.96 109.627Z" fill="#80BC4C" stroke="#07A338" stroke-miterlimit="10"/>
</svg>
